<svg  viewBox="0 0 26 26" fill="none" xmlns="http://www.w3.org/2000/svg">
<path fill-rule="evenodd" clip-rule="evenodd" d="M12.7172 2.16669C18.5347 2.16669 23.2667 6.89869 23.2667 12.7162C23.2667 15.4609 22.2134 17.9642 20.4898 19.8429L23.8814 23.2274C24.1988 23.5449 24.1999 24.0584 23.8825 24.3758C23.7243 24.5361 23.5153 24.6152 23.3073 24.6152C23.1003 24.6152 22.8923 24.5361 22.7331 24.3779L19.3005 20.9549C17.4948 22.401 15.2053 23.2668 12.7172 23.2668C6.89974 23.2668 2.16666 18.5337 2.16666 12.7162C2.16666 6.89869 6.89974 2.16669 12.7172 2.16669ZM12.7172 3.79169C7.79566 3.79169 3.79166 7.7946 3.79166 12.7162C3.79166 17.6378 7.79566 21.6418 12.7172 21.6418C17.6377 21.6418 21.6417 17.6378 21.6417 12.7162C21.6417 7.7946 17.6377 3.79169 12.7172 3.79169Z" fill="white"/>
</svg>
