<svg width="234" height="196" viewBox="0 0 234 196" fill="none" xmlns="http://www.w3.org/2000/svg">
<path fill-rule="evenodd" clip-rule="evenodd" d="M164.874 2.47684C196.984 10.3298 203.634 53.6281 228.105 75.9175C248.443 94.4419 280.417 97.419 294.851 120.867C311.24 147.49 316.02 180.036 311.236 210.957C305.855 245.731 298.257 288.607 266.564 303.678C234.369 318.988 199.399 289.384 164.874 280.558C140.73 274.385 115.289 274.247 94.9514 259.805C74.4377 245.238 64.9848 221.527 51.6484 200.154C32.9803 170.237 -3.46779 144.914 1.45216 109.964C6.3307 75.3072 45.2542 57.5219 74.4277 38.3337C102.219 20.0548 132.589 -5.4188 164.874 2.47684Z" stroke="black" stroke-dasharray="5 5"/>
</svg>
