<svg width="54" height="57" viewBox="0 0 54 57" fill="none" xmlns="http://www.w3.org/2000/svg">
<path d="M52.1553 31.65C55.0902 36.5046 52.6335 42.8874 47.4112 45.1006C45.8573 45.7596 44.1883 46.7549 42.5767 48.042C40.9916 49.3078 39.6705 50.6881 38.6891 52.0357C35.1362 56.9158 27.6933 57.7685 23.7055 52.7748C22.0683 50.7245 21.4887 48.1715 21.8925 45.772C21.8925 45.772 22.7967 40.8255 20.9813 34.0826C20.0218 30.7459 21.0854 27.0111 23.9671 24.7099C26.8497 22.408 30.7264 22.1961 33.7683 23.8699C38.7096 26.4804 42.9118 27.1377 44.3948 27.2972C47.4576 27.2564 50.41 28.7689 52.1553 31.65ZM10.3393 35.2763C14.3422 37.0645 16.5135 40.9197 15.1881 43.8872C13.8627 46.8547 9.54236 47.8109 5.5386 46.0233C1.53567 44.2351 -0.63566 40.3799 0.689783 37.4124C2.0144 34.444 6.3347 33.4879 10.3393 35.2763ZM18.5228 1.33084C21.1433 -0.298382 25.4131 1.6306 27.8463 5.54517C30.1041 9.18011 30.2619 14.0904 27.4948 15.7699C24.8751 17.4 20.6054 15.4694 18.1723 11.5548C15.9572 7.99072 15.7138 3.03575 18.5228 1.33084ZM12.397 16.1367C14.0803 17.7977 15.2212 19.895 15.5313 21.8909C15.7988 23.6152 15.4654 25.3821 14.1212 26.4555C11.8403 28.277 7.47738 27.2832 4.39868 24.241C2.71774 22.5812 1.57445 20.4828 1.26434 18.4869C0.999931 16.7828 1.31679 15.0094 2.67499 13.9248C4.95605 12.1032 9.3183 13.0946 12.397 16.1367ZM41.4791 4.84405C44.6669 4.20893 47.9463 7.17932 48.8047 11.4786C49.6622 15.7787 47.774 19.7804 44.5869 20.4165C41.3998 21.0525 38.1204 18.0821 37.262 13.7828C36.4037 9.48192 38.2918 5.48017 41.4791 4.84405Z" fill="#519BC2"/>
</svg>
